<svg xmlns="http://www.w3.org/2000/svg" version="1.1" xmlns:xlink="http://www.w3.org/1999/xlink" xmlns:svgjs="http://svgjs.dev/svgjs" width="2000" height="2242" viewBox="0 0 2000 2242"><g transform="matrix(1,0,0,1,-3.115264797507507,0)"><svg viewBox="0 0 321 360" data-background-color="#111111" preserveAspectRatio="xMidYMid meet" height="2242" width="2000" xmlns="http://www.w3.org/2000/svg" xmlns:xlink="http://www.w3.org/1999/xlink"><g id="tight-bounds" transform="matrix(1,0,0,1,0.5,0)"><svg viewBox="0 0 320 360" height="360" width="320"><g><svg></svg></g><g><svg viewBox="0 0 320 360" height="360" width="320"><g><path d="M20.961 227.22l3.726 4.658-1.863-6.056c-0.466-2.795-3.726 0.466-1.863 1.398M25.153 224.425c1.397 2.329 2.795 4.658 2.795 6.987 0 3.261 2.795 4.658 5.123 5.589-3.261-3.726-5.124-13.974-7.918-12.576M204.017 26.929c7.918 0 15.371-0.932 23.756 0.931 20.495 5.124 37.729 15.371 49.374 29.811l32.606 52.169c1.397 13.042 4.192 27.482 3.726 43.319 3.261 0 2.795-4.658 6.521-5.59-3.726 9.316-5.59 20.961-6.521 34.469-2.329-7.453 0-18.632 0.466-24.687-3.261 5.124-5.124 1.397-5.124-0.932 0.466-3.726-1.397-3.261-2.795-4.658-5.124-4.658-8.384-9.782-12.11-17.7 2.329-6.055 2.795-14.905-4.658-19.563-2.329-1.397-5.124-3.726-6.521-7.453-1.863-5.124-5.124-11.179-4.193-19.097 0.466-2.329-6.987 5.124-11.179 1.863-18.166-12.576-36.332-27.016-58.224-39.127-11.645 0-20.029-4.192-24.221-9.316-3.726-4.658-0.932-10.713 4.658-11.179 3.261 0 6.987-0.932 9.782 0.932 0.466-1.863 2.329-4.192 4.657-4.192M157.904 16.215l0.932 0.466c4.658 0.932 6.987 7.453 12.11 5.124 0 3.261 0.466 6.521-0.466 8.85-1.397 3.726-5.59 3.726-8.85 3.726-31.208-1.863-49.374 11.179-68.471 22.358-5.124 3.261-10.713 5.59-14.906 9.782-20.029 18.632-41.921 35.866-47.045 70.335l-4.192 38.195c-0.466 4.192-5.124 8.384-4.192 13.508l3.26 22.824c-3.261-3.261-5.124 0.932-4.192 2.795 0.466 1.397 2.329 6.055 5.124 1.863 3.726 6.987 7.453 20.495 12.576 26.55 15.837 18.632 36.332 35.4 53.101 52.169 4.192-0.932 7.453-0.932 8.384-3.727 1.397 2.795-1.397 5.59-3.726 6.056 7.453 4.658 15.837 8.85 27.016 9.781 14.44 0.932 27.948 3.261 40.524 6.522 6.521-1.863 13.042-2.795 20.029-3.261 2.329 0 3.726-3.726 6.521-4.658l0.466-4.658c2.795 4.192 2.329-1.397 0.466-4.192 3.261 2.795 4.192 5.124 5.589 6.987 0-1.397 3.726-6.521 3.727-0.466l0.931-6.055c1.397-0.932 1.863 5.124 3.261 0.931 1.397-4.192 4.192-0.932 6.987-2.329-0.932 1.863-0.466 5.59 2.794 3.261l3.727-3.261c2.329 5.59 6.055 3.261 7.918 2.329 20.495-13.042 40.99-28.413 60.553-43.784l-0.466 6.055 2.329-7.453c2.329 2.329 4.192 0.466 5.124-0.931 2.795-4.658 6.521-9.316 12.577-13.508-7.453 20.029-16.303 35.866-27.482 48.908l-4.658 5.59c0 3.261-0.932 7.453-4.658 7.918-1.863 0.466-5.59-0.932-8.384 1.863-1.397 1.863 3.261 5.59-0.466 2.795-3.261-2.329-6.521 0-10.248 0.932-2.795 0.932 1.863 3.726 2.795 5.589 0.932 1.863 1.863 3.726 1.398 6.056l-5.124-5.59c-6.055 3.261-9.782 9.316-14.906 13.974-2.329 1.863-1.397 5.124-1.397 7.918-3.261 0-6.987-0.932-8.85 0.932-1.397 1.863-0.932 4.658-0.932 7.453-4.658-0.466-5.124-7.453-9.315-6.056-4.192 0.932-8.85 1.397-12.577 3.727 2.795 5.59-4.658 2.329-3.726 3.26-6.987-4.192-13.042-7.453-20.495-4.658-15.837-5.124-35.4-2.795-49.84-0.931 0-2.329 0.466-4.658-0.466-5.124-0.932 2.329-3.726 1.397-3.26 1.397-8.85-6.055-17.7-9.782-27.016-14.905-8.384 0.932-16.303-3.261-18.632-5.59-6.521-6.055-13.974-2.795-20.029-4.192-13.042-3.261-17.7-16.769-19.098-26.084-0.932-4.658-4.658-6.521-6.055-6.056-6.055-19.563-15.371-37.263-22.824-55.429-1.863-4.658-1.397-9.316-1.397-14.44 2.329 0.932 4.658 0.466 4.192-2.794-2.329-15.371-7.918-27.016-13.974-38.195 3.261-15.837 3.726-34.469 11.179-48.443 6.521-12.576 18.632-19.098 27.016-29.811 2.795-3.726 2.795-8.85 5.59-12.11 9.316-9.316 18.632-19.098 28.879-27.482 4.658-3.726 10.247 0 17.234-1.397 2.329-8.384 11.645-15.837 20.495-13.508 3.726 0.932 11.179-8.85 13.508-9.782 3.726-1.397 1.863 3.726 1.863 6.987 8.85-6.987 20.961-10.713 32.14-14.906" fill="#ffffff" fill-rule="nonzero" stroke="none" stroke-width="1" stroke-linecap="butt" stroke-linejoin="miter" stroke-miterlimit="10" stroke-dasharray="" stroke-dashoffset="0" font-family="none" font-weight="none" font-size="none" text-anchor="none" style="mix-blend-mode: normal" data-fill-palette-color="tertiary"></path></g><g transform="matrix(1,0,0,1,85.88910133843213,90)"><svg viewBox="0 0 148.22179732313575 180" height="180" width="148.22179732313575"><g><svg viewBox="0 0 148.22179732313575 180" height="180" width="148.22179732313575"><g><svg viewBox="0 0 148.22179732313575 180" height="180" width="148.22179732313575"><g><svg viewBox="0 0 148.22179732313575 180" height="180" width="148.22179732313575"><g id="textblocktransform"><svg viewBox="0 0 148.22179732313575 180" height="180" width="148.22179732313575" id="textblock"><g><svg viewBox="0 0 148.22179732313575 180" height="180" width="148.22179732313575"><g transform="matrix(1,0,0,1,0,0)"><svg width="148.22179732313575" viewBox="-2.8 -35.18 33.3 40.230000000000004" height="180" data-palette-color="#ffffff"><path d="M5.5 1.05L5.5 1.05Q4.2 1.05 3.34 0.21 2.48-0.63 2.05-2.3L2.05-2.3Q1.88-3 1.75-4.11 1.63-5.23 1.51-6.56 1.4-7.9 1.34-9.3 1.28-10.7 1.24-12.03 1.2-13.35 1.2-14.4L1.2-14.4Q1.2-17.98 1.63-20.71 2.05-23.45 2.94-25.44 3.83-27.43 5.26-28.69 6.7-29.95 8.74-30.56 10.78-31.18 13.5-31.18L13.5-31.18Q16.1-31.18 18.45-30.61 20.8-30.05 22.61-28.93 24.43-27.8 25.46-26.13 26.5-24.45 26.5-22.25L26.5-22.25Q26.5-20.18 25.58-18.78 24.65-17.38 23.18-16.5 21.7-15.63 20.01-15.15 18.32-14.68 16.8-14.45L16.8-14.45Q15.95-14.33 15.63-14.18 15.3-14.03 15.3-13.73L15.3-13.73Q15.3-13.53 15.61-13.18 15.93-12.83 16.46-12.34 17-11.85 17.7-11.21 18.4-10.58 19.15-9.8L19.15-9.8Q19.88-9.08 20.84-8.1 21.8-7.13 22.78-6.09 23.75-5.05 24.59-4.11 25.43-3.18 25.95-2.5 26.48-1.83 26.48-1.6L26.48-1.6Q26.48-0.9 26.05-0.43 25.63 0.05 24.98 0.29 24.33 0.53 23.55 0.53L23.55 0.53Q22.75 0.53 21.79 0.05 20.83-0.43 19.76-1.28 18.7-2.13 17.6-3.25 16.5-4.38 15.4-5.7L15.4-5.7Q13.75-7.55 12.43-8.93 11.1-10.3 10.2-11.08 9.3-11.85 8.95-11.85L8.95-11.85Q8.7-11.85 8.56-11.64 8.43-11.43 8.36-10.89 8.3-10.35 8.29-9.43 8.28-8.5 8.28-7.08L8.28-7.08Q8.28-6.65 8.29-6 8.3-5.35 8.31-4.63 8.33-3.9 8.33-3.23 8.33-2.55 8.33-2.02 8.33-1.5 8.3-1.28L8.3-1.28Q8.1 0 7.34 0.53 6.58 1.05 5.5 1.05ZM11.03-16.5L11.03-16.5Q11.88-16.5 13.11-16.66 14.35-16.82 15.68-17.23 17-17.63 18.16-18.29 19.33-18.95 20.05-19.95 20.78-20.95 20.78-22.3L20.78-22.3Q20.78-23.7 20.11-24.68 19.45-25.65 18.34-26.24 17.23-26.83 15.88-27.1 14.53-27.38 13.15-27.38L13.15-27.38Q11.73-27.38 10.76-26.98 9.8-26.58 9.21-25.78 8.63-24.98 8.35-23.68L8.35-23.68Q8.18-22.95 8.09-22.23 8-21.5 7.95-20.79 7.9-20.08 7.9-19.4L7.9-19.4Q7.9-18.3 8.14-17.66 8.38-17.03 9.05-16.76 9.73-16.5 11.03-16.5Z" opacity="1" transform="matrix(1,0,0,1,0,0)" fill="#ffffff" class="wordmark-text-0" data-fill-palette-color="primary" id="text-0"></path></svg></g></svg></g></svg></g></svg></g><g></g></svg></g></svg></g></svg></g></svg></g><defs></defs></svg><rect width="320" height="360" fill="none" stroke="none" visibility="hidden"></rect></g></svg></g></svg>